# xmcd
#
# Track frame offsets:
#	150
#	14526
#	29465
#
# Disc length: 606 seconds
#
# Revision: 0
# Processed by: cddbd v1.4PL0 Copyright (c) Steve Scherf et al.
# Submitted via: EZCDDA 4.3.3.2
#
DISCID=1d025c03
DTITLE=Paul Carrack - Sunny ( Single )
DYEAR=1900
DGENRE=
TTITLE0=Sunny
TTITLE1=Harvest For The World
TTITLE2=Into The Mystic
EXTD=
EXTT0=
EXTT1=
EXTT2=
PLAYORDER=
